<?xml version="1.0" encoding="UTF-8" standalone="no"?>
<!-- Created with Inkscape (http://www.inkscape.org/) -->

<svg
   version="1.1"
   id="svg1"
   width="372"
   height="203"
   viewBox="0 0 372 203"
   sodipodi:docname="copy 404.png"
   inkscape:export-filename="..\Desktop\Aditya_Karma\Projects\TKPC-2023\Pet-Med\images\copy 404.svg"
   inkscape:export-xdpi="96"
   inkscape:export-ydpi="96"
   xmlns:inkscape="http://www.inkscape.org/namespaces/inkscape"
   xmlns:sodipodi="http://sodipodi.sourceforge.net/DTD/sodipodi-0.dtd"
   xmlns="http://www.w3.org/2000/svg"
   xmlns:svg="http://www.w3.org/2000/svg">
  <defs
     id="defs1" />
  <sodipodi:namedview
     id="namedview1"
     pagecolor="#ffffff"
     bordercolor="#000000"
     borderopacity="0.25"
     inkscape:showpageshadow="2"
     inkscape:pageopacity="0.0"
     inkscape:pagecheckerboard="0"
     inkscape:deskcolor="#d1d1d1"
     showgrid="false" />
  <g
     inkscape:groupmode="layer"
     inkscape:label="Image"
     id="g1">
    <path
       id="path3"
       style="fill:#000000"
       d="m 271.03906,39.351562 -8.04687,13.128907 c -7.1916,11.73248 -23.42645,35.024942 -29.81446,42.777343 l -2.39453,2.908203 -1.11523,-13.326171 c -0.97021,-11.596334 -1.51755,-14.144002 -4.21875,-19.63086 -6.06446,-12.318473 -16.50704,-20.984015 -28.84375,-23.933593 -15.19618,-3.633249 -33.82288,0.136625 -45.82422,9.273437 -4.44666,3.385276 -14.3107,18.583363 -16.02539,24.691406 -0.78922,2.811362 -1.69408,10.173919 -2.01172,16.361328 l -0.57812,11.249998 h -5.75 -5.75196 l -0.5957,-3.749998 c -1.88137,-11.850429 -2.52734,-18.611949 -2.46094,-25.75 0.0287,-3.088195 0.15062,-4.817812 0.32813,-5.378906 0.003,-0.157861 0.002,-0.316414 0.002,-0.474609 0.001,-0.265138 0.003,-0.529801 0.006,-0.794922 0.004,-0.257012 0.01,-0.514991 0.0273,-0.771484 0.0244,-0.339469 0.0573,-0.678097 0.12696,-1.011719 0.067,-0.307211 0.14057,-0.613783 0.23437,-0.914063 0.0747,-0.274316 0.16386,-0.544057 0.27344,-0.80664 0.005,-0.908185 0.0114,-1.816472 0.0156,-2.72461 0.002,-0.373426 0.003,-0.747664 0.004,-1.121093 3.9e-4,-0.198754 0.002,-0.396949 0.002,-0.595704 7e-5,-0.204362 -10e-6,-0.408916 0,-0.613281 -0.005,-0.267139 0.0113,-0.533081 0.0371,-0.798828 0.0293,-0.25675 0.0862,-0.509188 0.13867,-0.761719 0.0341,-0.143973 0.0646,-0.287901 0.0977,-0.43164 -0.0735,-5.145586 -0.25847,-9.438074 -0.51172,-9.691406 -0.30631,-0.30642 -8.39834,-0.154767 -17.98047,0.335937 -20.213508,1.035126 -18.183288,-0.106666 -26.544918,14.947266 -6.64023,11.954825 -16.16722,26.138437 -23.91601,35.607421 -3.60068,4.399938 -7.7086,10.350978 -9.12891,13.224608 l -2.58398,5.22461 2.06445,6.79102 c 3.24173,10.67302 3.60063,10.88536 17.20117,10.09375 1.17689,-0.0685 2.65523,-0.12078 3.98047,-0.18555 0.13237,-0.0268 0.26344,-0.0577 0.39648,-0.082 0.80638,-0.14481 1.61684,-0.28521 2.43555,-0.33789 0.27342,-0.0129 0.54677,-0.0164 0.82031,-0.0176 0.27355,-0.001 0.54675,2.2e-4 0.82031,0 0.66886,0 1.33715,-1e-5 2.00586,0 0.72583,1e-5 1.45191,-1.2e-4 2.17774,0 0.60989,1e-4 1.22019,0.001 1.83008,0.002 0.26488,4.4e-4 0.5299,10e-4 0.79492,0.002 1.68287,-0.0461 3.67051,-0.11899 4.90625,-0.13086 l 8.72265,-0.084 0.27735,14.25 0.27734,14.25 17.550778,-0.26953 c 0.86056,-0.0269 1.72088,-0.0462 2.58203,-0.0566 0.1738,-0.002 0.34768,-1.5e-4 0.52149,-0.002 10.67569,-0.18123 19.77065,-0.70753 20.26562,-1.19922 0.56114,-0.55747 0.53065,-6.10148 -0.0781,-14.19336 -0.54969,-7.30339 -0.80956,-14.0244 -0.57813,-14.93555 0.27781,-1.09372 1.83307,-1.8288 4.57813,-2.16211 2.28678,-0.27766 5.3662,-0.81653 6.8418,-1.19726 2.44909,-0.63197 2.94778,-0.2253 5.72461,4.66211 6.191,10.89684 12.99767,16.33027 24.9375,19.90625 5.55999,1.66523 8.65882,2.04529 12.75,1.56445 6.94007,-0.81566 17.17396,-4.67587 22.9707,-8.66406 4.00514,-2.75569 5.83716,-4.80921 11.2207,-12.5918 0.70783,-1.02322 0.25783,0.14442 -1,2.5957 -3.25839,6.35027 -12.32002,15.04253 -19.30664,18.51954 -5.37952,2.67721 -6.90881,2.96884 -15.22656,2.91406 -8.78361,-0.0579 -9.66933,-0.26897 -17.67578,-4.23633 -9.1168,-4.51756 -14.8404,-9.95502 -18.77735,-17.83789 l -2.19726,-4.40234 -6.05274,0.29296 -6.05078,0.29297 v 7 7 l 4.91992,0.3125 c 4.45368,0.2822 5.59634,0.91685 12.07032,6.71094 7.37884,6.60406 15.94041,11.50103 25.50976,14.5918 19.54185,6.31175 39.67577,-3.13217 51.09961,-23.97071 l 2.38867,-4.35742 22.00586,0.35742 22.00586,0.35547 0.5,7.5 0.5,7.5 12,0.31446 c 6.6,0.1726 15.26265,0.0211 19.25,-0.33594 l 7.25,-0.64844 v -13.89653 -13.89454 l 2.49024,-0.625 c 1.36965,-0.34373 4.26674,-0.45701 6.4375,-0.25 2.1706,0.20704 3.73842,0.16814 3.48437,-0.0859 -0.25405,-0.25405 1.01136,-0.93735 2.8125,-1.51953 3.20575,-1.03618 3.2813,-1.19577 3.58399,-7.55859 0.39512,-8.30579 -0.42526,-12.6167 -2.86524,-15.056642 -1.62065,-1.620628 -3.35798,-1.943359 -10.44336,-1.943359 h -8.5 l -0.14062,-7.75 c -0.0771,-4.262439 -0.41455,-17.200165 -0.75,-28.75 l -0.60938,-21 h -16.95312 z m 1.61719,1.5 h 15.39453 15.39453 l 0.006,20.75 c 0.003,11.412335 0.29522,24.462568 0.64844,29 l 0.64258,8.25 h 8.82812 c 8.4643,0 8.90032,0.109289 10.57813,2.669918 2.47022,3.76998 3.07943,15.43573 0.90039,17.24414 -0.87912,0.72959 -5.08768,1.61062 -9.35156,1.95704 l -7.75196,0.6289 -0.27734,14.10547 -0.27735,14.10547 -7.62304,0.64453 c -4.19337,0.35447 -12.05774,0.64453 -17.47461,0.64453 h -9.84766 v -13.39258 c 0,-9.8224 -0.33324,-13.50673 -1.25,-13.8164 -0.6875,-0.23224 -10.70015,-0.063 -22.25,0.375 -17.89962,0.67886 -21.62415,0.56749 -25.22656,-0.75781 -2.32447,-0.85515 -4.6981,-1.26377 -5.27344,-0.90821 -0.57533,0.35558 -2.38259,3.2963 -4.01758,6.53516 -5.01127,9.92742 -11.65586,15.12471 -24.86132,19.44922 -3.92334,1.28437 -7.3665,1.63462 -12.72071,1.29101 -13.39332,-0.85952 -24.681,-8.54009 -31.08789,-21.15429 l -2.47851,-4.88086 -4.66797,0.66601 c -2.56714,0.36616 -6.69102,0.98898 -9.16602,1.38281 l -4.5,0.71485 0.006,5.99805 c 0.003,3.29869 0.37069,10.12778 0.81836,15.17578 l 0.81445,9.17968 -4.31836,0.53711 c -2.37555,0.29596 -10.6666,0.81765 -18.42382,1.15821 l -14.105468,0.61914 -0.6875,-7.59961 c -0.37871,-4.17917 -0.39439,-9.16812 -0.0352,-11.08594 0.35974,-1.91783 0.34492,-5.12983 -0.0312,-7.13867 l -0.68554,-3.65235 -20.9629,0.69141 -20.96484,0.69141 -2.46094,-5.56836 c -4.30053,-9.72446 -3.56965,-12.03553 8.55469,-27.009768 7.23261,-8.932744 15.82823,-21.883639 24.29688,-36.607421 l 6.67578,-11.607422 6.15234,-0.642578 c 3.38326,-0.353621 11.083168,-0.642579 17.111328,-0.642579 9.00844,10e-7 10.8636,0.250066 10.41992,1.40625 -2.12161,5.528754 -1.56255,29.865772 1.12695,49.09375 l 0.69922,4.999998 h 7.98438 7.98633 l -0.30469,-7.499998 c -0.4796,-11.85743 2.74476,-24.377523 8.42969,-32.740234 6.77582,-9.967666 9.10482,-12.115569 17.66992,-16.294922 25.17888,-12.286057 50.90925,-4.577156 62.41211,18.697266 3.31346,6.704528 3.66125,8.224249 4.01757,17.58789 0.53576,14.073348 1.03074,16.752188 3.09961,16.742188 2.85493,-0.0133 26.80891,-32.676471 36.84571,-50.242188 z m -90.27734,23 c -10.2814,0 -17.82065,4.867946 -22.05664,14.242188 -2.11189,4.673434 -2.37424,6.701516 -2.36524,18.257812 0.01,12.279418 0.16633,13.304868 2.82813,18.499998 3.44567,6.72533 5.14563,8.67354 9.6582,11.06055 4.79851,2.53834 13.91035,2.53743 18.88672,-0.002 4.97895,-2.5401 9.82778,-8.15799 12.75781,-14.7832 4.55412,-10.29752 2.46297,-30.113796 -4.24609,-40.251957 -3.205,-4.843006 -8.00602,-7.023437 -15.46289,-7.023438 z m 0.59765,2 c 9.25153,0 14.14075,5.069618 17.60156,18.251954 2.95602,11.259049 2.53408,18.925284 -1.50195,27.275394 -3.75228,7.76336 -6.39234,10.63991 -11.86328,12.92578 -6.76393,2.82617 -14.42759,1.50047 -19.51758,-3.375 -8.97436,-8.59628 -10.7189,-31.35969 -3.41406,-44.531252 3.58164,-6.458039 10.82896,-10.546875 18.69531,-10.546876 z m 2.59571,3.021485 c -9.6035,0.04558 -16.66181,5.573699 -20.04688,15.697265 -2.03222,6.077675 -2.87371,19.047818 -1.47266,22.699218 0.33384,0.86998 1.18527,1.58203 1.89258,1.58203 1.62215,0 2.5,-2.24755 2.5,-6.40039 0,-5.666817 2.97004,-13.560123 6.62305,-17.603514 3.96783,-4.391835 8.44992,-6.241996 14.05078,-5.798828 3.82153,0.302381 3.82523,0.298326 3.71289,-3.429687 -0.15883,-5.270892 -1.77439,-6.772124 -7.25976,-6.746094 z m 0.52539,2.113281 c 1.94135,-0.07301 2.62915,0.42905 3.70898,1.970703 2.41897,3.453517 2.09235,3.894532 -2.89258,3.894531 -8.62849,0 -14.58057,4.398809 -17.87695,13.210938 -0.8825,2.359184 -1.99595,7.439119 -2.47266,11.28906 l -0.86718,7 -0.11329,-7.5 c -0.2665,-17.436414 6.17809,-27.985904 18.09375,-29.619138 0.98657,-0.135223 1.77276,-0.221758 2.41993,-0.246094 z m 85.73437,2.865234 c -0.92064,0 -3.18697,1.687545 -5.03515,3.75 -4.3008,4.799103 -14.35157,19.608536 -14.35157,21.146484 0,0.840277 2.91097,1.092728 10.25,0.888672 l 10.25,-0.285156 0.2793,-12.75 c 0.24951,-11.366672 0.0997,-12.749999 -1.39258,-12.75 z m -0.88672,2.685547 0.5,5.513672 c 0.27518,3.032991 0.34506,7.829738 0.1543,10.658203 l -0.34766,5.142578 h -7.87109 c -6.11236,0 -7.55703,-0.222421 -7.35156,-1.255859 -0.0926,-0.197015 -0.1054,-0.477019 0.0332,-0.81836 0.0456,-0.112251 0.0933,-0.222248 0.14453,-0.332031 0.0538,-0.11062 0.11254,-0.219888 0.17774,-0.324219 0.0779,-0.129522 0.17057,-0.24847 0.26367,-0.367187 0.0957,-0.121207 0.18395,-0.246008 0.28711,-0.361328 0.11128,-0.145987 0.2302,-0.285567 0.35742,-0.417969 0.0833,-0.07894 0.1407,-0.181481 0.2207,-0.263672 0.0793,-0.09408 0.14782,-0.197939 0.22852,-0.291016 0.0931,-0.112598 0.17932,-0.230952 0.26172,-0.351562 0.0894,-0.132602 0.17827,-0.265176 0.26953,-0.396484 0.002,-0.0032 0.004,-0.0046 0.006,-0.0078 0.20131,-0.346186 0.54926,-0.856408 0.85351,-1.322266 0.0741,-0.122708 0.14924,-0.244838 0.23047,-0.363281 0.0539,-0.07449 0.10996,-0.147453 0.16602,-0.220703 2.04864,-3.053562 5.44096,-7.592064 7.85937,-10.275391 z M 83.970702,79.851562 c -1.48807,10e-7 -2.00626,1.635395 -1.68359,5.322266 0.14504,1.657296 0.0179,1.679956 -1.41211,0.25 -1.81609,-1.816063 -4.02192,-2.041738 -4.96875,-0.509766 -0.36089,0.583926 -1.73717,1.472156 -3.05859,1.974609 -1.97141,0.749519 -2.40235,1.615917 -2.40235,4.822266 0,3.067069 -0.43039,4.019231 -2,4.429688 -1.51758,0.396851 -2,1.364181 -2,4.009765 0,2.17671 0.56354,3.70315 1.5,4.0625 0.825,0.31658 1.5,1.22702 1.5,2.02344 0,0.79641 0.5625,1.67571 1.25,1.95312 2.35798,0.95146 4.09532,0.6608 5.92188,-0.99218 1.70342,-1.54152 1.96041,-1.53532 3.7539,0.0879 3.10591,2.81076 5.57422,1.64878 5.57422,-2.62305 0,-2.80187 0.28864,-3.40247 1.25,-2.60352 0.6875,0.57135 1.25,1.65838 1.25,2.41602 0,1.89177 2.92173,1.7419 3.66211,-0.1875 0.33004,-0.86006 0.12665,-2.60451 -0.45312,-3.87695 -0.73484,-1.613019 -0.73459,-2.630657 -0.006,-3.361332 0.73068,-0.730676 0.37793,-2.431605 -1.16406,-5.617188 -1.21652,-2.512973 -2.56473,-4.786133 -2.9961,-5.052734 -0.43137,-0.266599 -1.05638,-1.844443 -1.38867,-3.505859 -0.35528,-1.776362 -1.23213,-3.021484 -2.12891,-3.021485 z m -7.80078,6.234375 c 0.16144,0.06437 0.25471,0.408455 0.25977,1.015625 0.0103,1.175704 -0.72274,1.724914 -2.23438,1.671875 -1.50344,-0.05275 -1.75229,-0.26886 -0.75,-0.650391 0.825,-0.314044 1.8303,-1.066853 2.23438,-1.671875 0.11329,-0.169631 0.21579,-0.280734 0.30664,-0.335937 0.0681,-0.0414 0.12978,-0.05075 0.18359,-0.0293 z m 186.804688,1.234375 c -0.0211,0.02894 -0.0382,0.05414 -0.0586,0.08203 0.0191,-0.01995 0.0374,-0.04072 0.0566,-0.06055 0.003,-0.0086 -10e-4,-0.01281 0.002,-0.02148 z M 77.960942,88.3125 c 0.18066,-0.05488 0.50486,-0.0056 0.93164,0.158203 0.85357,0.327539 1.55273,1.44714 1.55273,2.488281 0,1.041139 0.675,1.892578 1.5,1.892578 2.35404,0 1.75336,2.698277 -0.75,3.369141 -3.29211,0.882278 -3.3744,0.852731 -5.13867,-1.839844 -1.22933,-1.876171 -1.28808,-2.341998 -0.24414,-1.941406 1.46467,0.562037 3.0134,-2.162198 2.08398,-3.666016 -0.15267,-0.24703 -0.11676,-0.406062 0.0645,-0.460937 z m 8.8457,0.80664 c 0.17086,-0.07915 0.37417,0.358067 0.72656,1.259766 0.42388,1.084611 0.8031,2.235812 0.8418,2.55664 0.0386,0.32083 -0.52856,0.582032 -1.25977,0.582032 -0.88642,0 -1.16559,-0.850655 -0.83984,-2.554688 0.22336,-1.168423 0.36039,-1.7646 0.53125,-1.84375 z m 6.71094,0.732422 c -2.00035,0 -2.80028,1.938021 -1.38477,3.353516 1.07182,1.071807 2.77783,0.154905 3.13477,-1.685547 0.21801,-1.124066 -0.35203,-1.667969 -1.75,-1.667969 z m 2.75586,3.142578 c -0.40437,0.107336 -0.82855,0.529342 -1.39649,1.298828 -0.78797,1.067605 -1.43164,2.755135 -1.43164,3.75 0,2.643062 2.44689,2.209302 4.00977,-0.710937 1.07709,-2.01253 1.09942,-2.767938 0.10351,-3.75 -0.49437,-0.487504 -0.88078,-0.695227 -1.28515,-0.587891 z m -22.4961,2.824219 c 0.58388,0.124419 1.22271,0.679752 2.28711,1.744141 1.89535,1.895322 2.75468,2.159753 4.3086,1.328125 2.93802,-1.572432 6.67067,-1.247121 8.15234,0.710937 1.12651,1.488748 1.11398,1.563398 -0.0781,0.499998 -2.29713,-2.048378 -5.96432,-1.51809 -6.91602,1 -0.46766,1.23748 -0.65304,2.58751 -0.41016,3 0.69581,1.18172 -0.48175,0.87411 -1.21875,-0.31836 -0.36309,-0.58749 -1.3177,-0.81488 -2.12304,-0.50586 -1.07525,0.41262 -1.30424,0.054 -0.85938,-1.34765 0.72673,-2.289678 -2.85351,-5.217284 -5.33984,-4.36719 -1.25156,0.427923 -1.19557,0.215587 0.24023,-0.904297 0.84342,-0.657846 1.37316,-0.964263 1.95703,-0.839844 z m -4.86523,2.496094 c 0.0603,0.02246 0.12596,0.115237 0.19531,0.287109 0.27741,0.68749 0.27741,1.812508 0,2.499998 -0.27741,0.68749 -0.5039,0.12498 -0.5039,-1.249998 0,-1.031235 0.12772,-1.604491 0.30859,-1.537109 z m 14.75,3.035157 c 0.24542,0.10394 0.2876,0.67444 0.0723,1.5 -0.61061,2.33495 -1.28907,2.63027 -1.28907,0.56055 0,-0.79253 0.40754,-1.69179 0.90625,-2 0.12468,-0.0771 0.22874,-0.0952 0.31055,-0.0606 z m -10.41992,0.50586 c 0.1384,-10e-4 0.15742,0.41523 0.17187,1.24609 0.0167,0.96249 0.50739,1.75 1.08985,1.75 0.58246,0 0.78132,0.45001 0.4414,1 -1.62286,2.6258 -4.14891,-0.0549 -2.58398,-2.74219 0.48606,-0.83466 0.74246,-1.25285 0.88086,-1.2539 z m 148.124998,23.48828 c 0.77028,0.0329 1.61769,0.19192 2.50976,0.48633 2.50728,0.82745 9.65876,0.95241 25.03907,0.4414 18.10842,-0.60163 21.52966,-0.49173 21.52929,0.6836 -3.7e-4,1.1598 -3.78253,1.36631 -22.25,1.2207 -12.23711,-0.0965 -23.55134,-0.4359 -25.14258,-0.75391 -1.59109,-0.31801 -3.50374,-0.0705 -4.25,0.54883 -0.82036,0.68095 -1.35742,0.72972 -1.35742,0.125 0,-1.82653 1.61103,-2.85069 3.92188,-2.75195 z m 41.57812,4.50781 c 5.4249,0 5.5,0.0405 5.5,2.95313 v 2.95312 l -5.25,-0.60547 c -2.88735,-0.33315 -5.58029,-1.0997 -5.98437,-1.70312 -0.50672,-0.75672 -0.7394,-0.70978 -0.75,0.15234 -0.008,0.6875 -0.35313,1.19596 -0.76563,1.13086 -0.4125,-0.0651 -7.61003,-0.0651 -15.99414,0 l -15.24414,0.11914 -5.44141,8.43555 c -6.43874,9.98094 -13.78235,16.21596 -22.8496,19.40039 -7.46918,2.62312 -15.05632,2.68571 -22.72071,0.18945 -12.11242,-3.94492 -18.25155,-7.56003 -26.58593,-15.66015 -4.3204,-4.19889 -5.47524,-4.78859 -10.14454,-5.17578 l -5.26953,-0.4375 v -5.375 c 0,-5.27345 0.0573,-5.38021 3,-5.52735 1.65,-0.0825 3.5537,-0.195 4.23047,-0.25 0.67677,-0.055 2.33947,1.92544 3.69531,4.40039 3.4664,6.32692 12.57329,15.00929 19.10743,18.2168 3.04276,1.49372 8.77929,3.27255 12.74804,3.95312 17.23545,2.95554 31.28733,-3.96912 42.46094,-20.92382 l 3.74023,-5.67774 16.75977,0.3125 c 9.21695,0.17153 17.09531,0.51882 17.50781,0.77344 0.4125,0.25464 0.75763,-0.12574 0.76563,-0.8457 0.0111,-0.95118 0.27998,-0.89854 0.98437,0.1914 0.64625,1 0.97418,1.08333 0.98438,0.25 0.0104,-0.84661 1.7906,-1.25 5.51562,-1.25 z" />
    <path
       style="fill:#55e072;fill-opacity:1;stroke-width:1.41421"
       d="m 89.647362,143.43234 v -14.79306 l -21.06631,0.86476 -21.0663,0.86475 -2.26822,-4.38624 c -4.3522,-8.41624 -3.11432,-12.5237 8.39667,-27.86123 5.83761,-7.778175 15.08103,-21.572046 20.54095,-30.653047 l 9.92712,-16.510914 8.77845,-0.922526 c 4.82815,-0.507389 11.779378,-0.714231 15.447158,-0.459649 l 6.66871,0.462875 0.69063,21.920311 c 0.37985,12.05617 1.12148,24.306795 1.64807,27.22361 l 0.95742,5.3033 h 8.09063 8.09063 l 0.85581,-11.097852 c 2.15292,-27.918483 15.84181,-44.513994 40.96926,-49.668422 13.86878,-2.844922 28.00485,1.697831 37.99373,12.209629 7.94016,8.355821 11.25832,16.242977 12.02747,28.588932 0.8646,13.877945 1.57023,17.140483 3.70576,17.134013 3.15616,-0.01 23.26187,-26.763574 36.39647,-48.43154 l 7.50104,-12.374369 h 14.63055 14.63055 v 28.328657 c 0,21.421342 0.43102,28.465247 1.76777,28.888852 0.97227,0.308109 5.37865,0.964277 9.79194,1.458153 7.37061,0.824817 8.14811,1.253497 9.54594,5.263307 0.83698,2.40094 1.52177,6.19532 1.52177,8.43196 0,4.73921 -3.91795,6.82503 -12.81999,6.82503 h -5.56479 v 13.99083 c 0,11.45321 -0.40574,14.14653 -2.23699,14.84924 -1.23034,0.47213 -8.86709,0.85841 -16.97056,0.85841 h -14.73357 l -0.0217,-11.66726 c -0.0119,-6.41699 -0.57087,-12.53413 -1.24214,-13.59363 -0.96495,-1.52304 -5.6241,-1.82101 -22.25221,-1.42313 -11.56745,0.27679 -23.57731,0.007 -26.68858,-0.59881 -5.64555,-1.09986 -5.66439,-1.08854 -9.43,5.66576 -4.93712,8.85558 -8.62489,12.16608 -18.68128,16.77004 -18.85591,8.63252 -39.82875,1.19663 -48.61962,-17.23802 -2.58923,-5.42967 -2.06362,-5.30711 -13.91147,-3.2439 l -8.84968,1.54111 0.80205,15.20349 0.80205,15.2035 -13.14512,0.93307 c -7.22982,0.51319 -15.274748,0.93307 -17.877618,0.93307 h -4.73249 z m 100.409168,-17.3825 c 6.62785,-3.31098 13.61821,-14.02807 14.81211,-22.70882 1.14169,-8.301025 -1.28624,-22.86013 -5.03889,-30.215954 -3.72907,-7.309595 -9.58692,-10.1077 -19.6384,-9.380641 -9.83603,0.711474 -15.64857,4.519169 -19.71193,12.912958 -4.39306,9.074854 -4.23466,31.841187 0.27697,39.806897 6.33994,11.19375 18.26885,15.0963 29.30014,9.58556 z M 90.000922,105.61448 c 1.71957,0.34213 2.47487,-0.40244 2.47487,-2.43972 0,-1.63222 0.91839,-2.93212 2.07156,-2.93212 1.13936,0 2.71197,-1.19661 3.49469,-2.659134 1.67942,-3.138016 -2.24569,-8.654574 -6.15785,-8.654574 -1.38458,0 -3.24672,-2.071597 -4.44929,-4.949747 -2.28829,-5.476657 -4.74171,-6.40935 -5.83746,-2.21918 -0.40075,1.532482 -1.53356,2.416099 -2.58178,2.013859 -3.12992,-1.201065 -9.16729,3.727344 -9.16729,7.483422 0,1.879498 -0.95459,3.783581 -2.12132,4.231297 -2.88822,1.108312 -2.61709,6.148727 0.5525,10.271347 2.06745,2.68908 3.47304,3.22354 6.75267,2.56762 2.27796,-0.45559 5.06637,-0.23735 6.19646,0.48498 1.42857,0.9131 2.70117,0.5509 4.17604,-1.18857 1.16673,-1.37604 3.23502,-2.28031 4.5962,-2.00948 z M 273.49513,86.807611 c 0,-14.930246 -1.05198,-16.301216 -7.32481,-9.545941 -4.90463,5.281848 -13.8884,18.991484 -13.8884,21.194326 0,1.280571 3.00436,1.786644 10.6066,1.786644 h 10.60661 z"
       id="path71" />
    <path
       style="fill:#55e072;fill-opacity:1;stroke-width:0.0883883"
       d="m 77.980102,96.547976 c -0.19445,-0.09174 -0.499,-0.328116 -0.67676,-0.525289 -0.62449,-0.692661 -2.04165,-2.934704 -2.15883,-3.415418 -0.0609,-0.249818 -0.0561,-0.253849 0.23767,-0.200517 0.9994,0.181418 1.16738,0.170889 1.58697,-0.09946 1.00866,-0.649915 1.52983,-2.31552 1.05321,-3.365911 -0.0962,-0.211917 -0.17484,-0.416479 -0.17484,-0.454583 0,-0.155567 0.31935,-0.173372 0.76837,-0.04284 0.95162,0.276644 1.63851,1.232695 1.78341,2.482237 0.0955,0.823882 0.17498,1.050334 0.50689,1.44479 0.28837,0.342699 0.69696,0.535426 1.13515,0.535426 0.44013,0 0.98427,0.239991 1.16315,0.513004 0.22704,0.346506 0.19405,0.897206 -0.082,1.368187 -0.44052,0.751681 -1.15851,1.177107 -2.65078,1.57064 -1.34111,0.35367 -2.03255,0.406323 -2.49165,0.189738 z"
       id="path105" />
    <path
       style="fill:#55e072;fill-opacity:1;stroke-width:0.0883883"
       d="m 80.867612,104.68725 c -0.16196,-0.0785 -0.42049,-0.30171 -0.57452,-0.49613 -0.60733,-0.76659 -0.79906,-0.91817 -1.30441,-1.03127 -0.43197,-0.0967 -0.57016,-0.0883 -1.18602,0.0715 -0.83664,0.2171 -1.0158,0.16325 -1.0158,-0.30528 0,-0.17358 0.0635,-0.55998 0.14123,-0.85868 0.19342,-0.74382 0.12885,-1.33093 -0.22555,-2.05082 -0.51127,-1.03853 -1.67677,-2.008379 -2.91201,-2.423171 -0.68283,-0.229293 -1.72436,-0.252188 -2.29599,-0.05047 -0.21272,0.07506 -0.46824,0.136481 -0.56783,0.136481 -0.17399,0 -0.17269,-0.009 0.0332,-0.229787 0.34942,-0.374708 1.59827,-1.286965 2.01643,-1.472959 0.7554,-0.335996 1.30619,-0.05468 2.93465,1.498866 1.21282,1.157028 1.61305,1.474757 2.16553,1.719142 0.61774,0.273259 1.38701,0.200005 2.20167,-0.209653 2.36614,-1.189836 4.82651,-1.361925 6.72891,-0.470648 0.34656,0.162364 0.79406,0.443322 0.99443,0.624351 0.42172,0.380998 1.02783,1.176888 0.95313,1.251578 -0.028,0.028 -0.23817,-0.11388 -0.46701,-0.31532 -0.93382,-0.821979 -2.05736,-1.247167 -3.29112,-1.245473 -1.25552,0.0017 -2.26463,0.378847 -2.97812,1.112969 -0.46366,0.477074 -0.76269,1.085174 -1.01803,2.070234 -0.25137,0.96974 -0.26767,1.78316 -0.0457,2.27779 0.20917,0.46598 0.11743,0.59275 -0.28712,0.39678 z"
       id="path106" />
    <path
       style="fill:#55e072;fill-opacity:1;stroke-width:0.0883883"
       d="m 72.802462,106.67079 c -0.78112,-0.5264 -1.06367,-1.5669 -0.73592,-2.71004 0.14713,-0.51315 0.98699,-1.97713 1.14059,-1.98818 0.0498,-0.004 0.11694,0.39319 0.15375,0.90837 0.0537,0.75167 0.10885,0.99588 0.30936,1.37002 0.20949,0.39091 0.30025,0.47255 0.64175,0.57734 0.60154,0.18459 0.66075,0.22811 0.68902,0.50646 0.0362,0.35617 -0.43523,1.04248 -0.90524,1.31792 -0.46743,0.27394 -0.90461,0.28006 -1.29331,0.0181 z"
       id="path107" />
    <path
       style="fill:#55e072;fill-opacity:1;stroke-width:0.0883883"
       d="m 82.613132,104.51456 c -0.0562,-0.14528 -0.0821,-0.60246 -0.0616,-1.08994 0.0384,-0.91358 0.19126,-1.33563 0.65014,-1.79451 0.29613,-0.29613 0.4808,-0.27894 0.59209,0.0551 0.17239,0.51741 -0.6004,2.93512 -0.97385,3.04674 -0.0605,0.0181 -0.15352,-0.0798 -0.20678,-0.21739 z"
       id="path108" />
    <path
       style="fill:#55e072;fill-opacity:1;stroke-width:0.0883883"
       d="m 82.178552,109.20464 c -0.0729,-0.0277 -0.45078,-0.20484 -0.83969,-0.39363 -0.8814,-0.42787 -1.4855,-0.58469 -2.73274,-0.70941 -0.89638,-0.0896 -1.84631,-0.0675 -2.87992,0.0672 l -0.39775,0.0518 0.45029,-0.30564 c 0.24765,-0.1681 0.75958,-0.57538 1.13762,-0.90508 0.79145,-0.69025 1.3434,-0.9736 1.73075,-0.88853 0.27368,0.0601 0.79461,0.43493 2.00898,1.44549 1.02248,0.85087 1.72481,1.18155 2.61947,1.23334 l 0.70166,0.0406 -0.33966,0.17426 c -0.33751,0.17315 -1.2054,0.28592 -1.45901,0.18957 z"
       id="path109" />
    <path
       style="fill:#55e072;fill-opacity:1;stroke-width:0.0883883"
       d="m 85.625692,107.18544 c 0,-0.0219 0.0626,-0.27053 0.13906,-0.55243 0.0841,-0.31001 0.16972,-1.1836 0.21668,-2.21074 0.12779,-2.79549 0.34835,-3.1343 1.37266,-2.1086 0.55722,0.55797 0.90799,1.26256 1.01908,2.04704 0.047,0.33212 0.16404,0.73693 0.26001,0.89959 0.096,0.16266 0.17449,0.30828 0.17449,0.32359 0,0.0153 -0.15453,0.0526 -0.34341,0.0828 -0.47146,0.0754 -1.81837,0.76673 -2.33996,1.20105 -0.41879,0.34873 -0.49861,0.39959 -0.49861,0.31774 z"
       id="path110" />
    <path
       style="fill:#55e072;fill-opacity:1;stroke-width:0.0883883"
       d="m 91.017382,105.60188 c 0,-0.0178 0.1569,-0.13628 0.34867,-0.26318 1.00233,-0.66331 1.22195,-2.4323 0.53941,-4.34476 -0.1388,-0.38891 -0.36053,-1.005416 -0.49274,-1.370018 -0.32702,-0.901893 -0.32961,-1.613517 -0.008,-2.138897 0.12808,-0.209094 0.32198,-0.492655 0.43089,-0.630136 0.17119,-0.21611 0.19654,-0.347797 0.18715,-0.972272 -0.009,-0.571634 -0.0757,-0.915904 -0.32169,-1.650384 -0.83179,-2.483588 -3.09351,-6.767454 -4.16235,-7.883787 -0.53336,-0.557068 -0.87738,-1.39211 -1.34423,-3.262895 -0.44945,-1.801036 -0.85054,-2.593015 -1.54643,-3.053539 -0.29291,-0.193837 -0.41919,-0.223101 -0.81948,-0.189906 -0.61655,0.05113 -0.99498,0.322592 -1.25871,0.902903 -0.35254,0.775738 -0.42352,1.49652 -0.35926,3.648041 0.0363,1.215606 0.0265,1.980467 -0.0258,2.012781 -0.0921,0.05695 -0.3971,-0.188024 -1.44747,-1.162825 -0.9669,-0.897331 -1.76421,-1.28281 -2.76162,-1.335161 -0.67569,-0.03546 -0.79032,-0.01669 -1.23943,0.203042 -0.34665,0.169599 -0.58664,0.369844 -0.80122,0.668528 -0.416,0.579041 -1.21856,1.159601 -2.33045,1.685811 -0.51044,0.241571 -1.16445,0.555604 -1.45336,0.69785 -0.2889,0.142246 -0.53859,0.245307 -0.55488,0.229025 -0.0638,-0.06379 1.46777,-1.537985 2.04709,-1.970429 1.90351,-1.420896 3.78587,-2.031105 5.13718,-1.665325 1.43926,0.38959 2.25956,-0.198575 2.87513,-2.061511 0.75243,-2.277107 1.5147,-2.906449 2.69818,-2.227659 1.02482,0.587793 1.66449,1.579405 3.37298,5.228753 0.57237,1.2226 1.32743,2.349524 2.09694,3.129681 0.79237,0.803332 1.31736,1.060815 2.42743,1.190543 1.36668,0.159717 2.38036,0.660723 3.5491,1.754124 0.84291,0.788567 1.40095,1.516647 1.85592,2.421429 0.18891,0.375676 0.34347,0.701236 0.34347,0.723466 0,0.02223 -0.20033,-0.154715 -0.44519,-0.393211 -0.26668,-0.259756 -0.58949,-0.476863 -0.80507,-0.541453 -0.32612,-0.09771 -0.39713,-0.08807 -0.75667,0.102668 -1.05983,0.562235 -2.4321,3.096154 -2.56094,4.728784 -0.0625,0.792005 0.0793,1.318596 0.4569,1.696137 0.25166,0.251663 0.35257,0.292329 0.72128,0.290659 0.80387,-0.0036 1.61291,-0.55995 2.37341,-1.63201 0.47721,-0.672708 1.07287,-1.858794 1.2341,-2.457352 l 0.1241,-0.460696 0.006,0.68192 c 0.007,0.83663 -0.15031,1.333866 -0.67187,2.121906 -0.74915,1.131901 -2.01302,2.008935 -3.08869,2.143325 -1.38168,0.17263 -2.01656,1.07961 -2.15753,3.08219 -0.0937,1.33141 -0.32857,1.89021 -0.91337,2.1733 -0.36704,0.17769 -0.49896,0.21749 -0.49896,0.15054 z M 93.890002,93.537 c 0.43625,-0.198682 0.97533,-0.783981 1.2221,-1.326881 0.1331,-0.29282 0.18662,-0.592103 0.18891,-1.056423 0.003,-0.619422 -0.009,-0.658996 -0.28059,-0.901642 -0.37405,-0.334483 -0.90282,-0.467832 -1.66075,-0.418813 -0.9846,0.06368 -1.65226,0.509502 -1.90362,1.271128 -0.2127,0.644498 0.0742,1.604858 0.63568,2.127623 0.52313,0.487084 1.16095,0.595266 1.79827,0.305008 z"
       id="path111" />
    <path
       style="fill:#55e072;fill-opacity:1;stroke-width:0.0883883"
       d="m 73.693272,88.709215 c -0.0729,-0.01852 -0.28174,-0.05801 -0.46404,-0.08776 -0.1823,-0.02975 -0.33146,-0.08371 -0.33146,-0.119928 0,-0.03621 0.30958,-0.210423 0.68796,-0.387132 0.79736,-0.372382 1.61648,-0.979501 2.03725,-1.509985 0.39131,-0.493349 0.51229,-0.553705 0.63822,-0.318404 0.16497,0.308245 0.0736,1.490585 -0.13755,1.779857 -0.28391,0.388966 -0.83764,0.610571 -1.61393,0.645904 -0.37613,0.01712 -0.74353,0.01597 -0.81645,-0.0025 z"
       id="path112" />
    <path
       style="fill:#55e072;fill-opacity:1;stroke-width:0.0883883"
       d="m 86.572852,93.259174 c -0.32184,-0.253161 -0.43618,-0.865976 -0.3258,-1.746242 0.11834,-0.943771 0.45808,-2.254319 0.5959,-2.298671 0.13178,-0.04241 0.47634,0.68645 0.93064,1.968574 0.51133,1.443066 0.59339,1.777283 0.4747,1.933183 -0.26862,0.35283 -1.29716,0.440713 -1.67544,0.143156 z"
       id="path113" />
    <path
       style="fill:#55e072;fill-opacity:1;stroke-width:0.0883883"
       d="m 69.121022,106.67104 c -0.70306,-0.72441 -1.627,-2.06497 -2.14613,-3.11384 -0.64586,-1.3049 -0.9394,-2.19628 -1.12063,-3.40295 -0.23727,-1.579826 0.0743,-3.029052 0.83816,-3.899089 0.15018,-0.171044 0.59391,-0.483681 0.98607,-0.694749 0.45404,-0.244378 0.82589,-0.52152 1.02381,-0.763051 0.66392,-0.810229 1.19027,-2.359665 1.19027,-3.503841 0,-0.572911 0.19921,-1.372075 0.49029,-1.966841 0.20657,-0.422085 0.21431,-0.428042 0.17238,-0.132582 -0.0242,0.170147 -0.0801,1.184404 -0.12439,2.253903 -0.0443,1.069499 -0.1268,2.199903 -0.18342,2.51201 -0.19976,1.101292 -0.6395,1.697051 -1.47252,1.994971 -1.02634,0.367059 -1.51385,0.658484 -1.78412,1.06651 -0.4267,0.6442 -0.50159,1.115768 -0.49751,3.132759 0.003,1.72527 0.015,1.84579 0.24054,2.51907 0.2802,0.83646 0.6319,1.29591 1.22019,1.59402 0.48747,0.24702 0.9848,0.71032 1.19143,1.10989 0.11932,0.23074 0.41394,1.58803 0.35758,1.64736 -0.0106,0.0111 -0.18247,-0.14796 -0.382,-0.35355 z"
       id="path114" />
    <path
       style="fill:#bf2384;fill-opacity:1;stroke-width:0.0883883"
       d="m 68.762842,101.14862 c -0.0349,-0.0851 -0.0635,-0.69962 -0.0635,-1.365658 0,-1.355195 0.0904,-1.632276 0.36533,-1.119371 0.1208,0.225375 0.16009,0.500815 0.1622,1.137107 0.004,1.101542 -0.25575,1.855112 -0.46402,1.347922 z"
       id="path115" />
    <path
       style="fill:#bf2384;fill-opacity:1;stroke-width:0.353553"
       d="m 179.85487,164.20078 c -4.6689,-0.68197 -13.27319,-3.72435 -18.87836,-6.67518 -4.56004,-2.40063 -7.9386,-4.89936 -13.1487,-9.72457 -2.41918,-2.24047 -5.04432,-4.38353 -5.83364,-4.76235 -1.43207,-0.68731 -6.07545,-1.43029 -8.93885,-1.43029 h -1.51188 l 0.005,-4.33103 c 0.007,-5.93558 0.0553,-6.01229 4.03286,-6.42268 l 3.13909,-0.32389 1.27278,1.42775 c 0.70003,0.78526 2.14782,2.83581 3.21732,4.55676 2.32692,3.74431 9.0747,10.73261 13.08148,13.54777 4.78785,3.36393 9.95034,5.48515 16.97902,6.9765 4.44413,0.94295 12.93103,0.87759 16.9621,-0.13064 11.11943,-2.78113 19.73842,-9.89939 28.47393,-23.51609 l 1.75489,-2.73548 4.06586,0.002 c 6.39979,0.002 27.59113,0.66225 29.27829,0.91153 1.34867,0.19927 1.54671,0.13976 1.71829,-0.51639 l 0.19394,-0.74163 0.64213,0.78661 0.64212,0.78661 0.72195,-0.76865 c 1.34722,-1.43439 9.17171,-1.63987 10.17542,-0.26722 0.49099,0.67146 0.66599,4.753 0.20332,4.7417 -0.14584,-0.004 -1.91149,-0.24048 -3.92365,-0.52649 -4.20057,-0.59707 -6.25836,-1.14702 -6.81883,-1.82235 -0.57436,-0.69206 -0.94882,-0.57997 -1.07697,0.32239 l -0.11298,0.79549 -15.9099,0.10827 -15.90991,0.10826 -4.41941,6.75927 c -6.68558,10.22524 -12.16467,15.60483 -19.7071,19.3492 -6.56301,3.25814 -13.69906,4.48962 -20.36982,3.51524 z"
       id="path116" />
    <path
       style="fill:#bf2384;fill-opacity:1;stroke-width:0.353553"
       d="m 165.9892,98.12132 c 0.1563,-7.279166 1.00834,-11.327156 3.41072,-16.204296 3.20816,-6.51296 9.62021,-10.641561 16.55666,-10.660535 1.79349,-0.0049 1.99441,0.0857 3.2814,1.479759 1.35258,1.465105 1.95654,2.767575 1.57192,3.389906 -0.1084,0.175388 -1.92098,0.417521 -4.02797,0.538074 -6.34608,0.363096 -9.98235,1.921411 -13.52269,5.79511 -3.2735,3.581725 -5.41429,9.344641 -6.86875,18.490412 l -0.53415,3.35875 z"
       id="path117" />
    <path
       style="fill:#55e072;fill-opacity:1;stroke:#1a1a1a;stroke-width:0.125"
       d="m 68.822702,99.86875 c 0.01,-1.396896 0.0148,-1.420749 0.20189,-0.99375 0.21232,0.48454 0.15652,2.05639 -0.0814,2.29435 -0.0909,0.0909 -0.12755,-0.30517 -0.12045,-1.3006 z"
       id="path142" />
  </g>
</svg>
